<?xml version="1.0" encoding="UTF-8" standalone="no"?>
<svg width="62px" height="62px" viewBox="0 0 62 62" version="1.1" xmlns="http://www.w3.org/2000/svg" xmlns:xlink="http://www.w3.org/1999/xlink" xmlns:sketch="http://www.bohemiancoding.com/sketch/ns">
    <!-- Generator: Sketch 3.3.3 (12081) - http://www.bohemiancoding.com/sketch -->
    <title>logoW</title>
    <desc>Created with Sketch.</desc>
    <defs></defs>
    <g id="Welcome" stroke="none" stroke-width="1" fill="none" fill-rule="evenodd" sketch:type="MSPage">
        <g id="Desktop-HD" sketch:type="MSArtboardGroup" transform="translate(-689.000000, -1688.000000)" fill="#B0AFAF">
            <g id="logoW" sketch:type="MSLayerGroup" transform="translate(689.000000, 1688.000000)">
                <g id="Group" sketch:type="MSShapeGroup">
                    <path d="M1.97452229,28.6700637 L0,28.6700637 L0,16.2389452 L19.1576051,0 L44.8360306,0 L62,16.2389452 L62,28.6700637 L60.0254777,28.6700637 L60.0254777,16.9583032 L44.0644662,1.97452229 L44.0545936,1.97452229 L19.8802013,1.97452229 L1.97452229,16.9954242 L1.97452229,28.6700637 L1.97452229,28.6700637 Z" id="Shape"></path>
                    <path d="M60.0254777,43.255228 L44.0357962,60.0254777 L19.9179541,60.0254777 L1.97452229,43.2187389 L1.97452229,33.9617834 L0,33.9617834 L0,43.9368331 L19.1576051,62 L44.8360306,62 L62,43.9368331 L62,33.9617834 L60.0254777,33.9617834 L60.0254777,43.255228 Z" id="Shape"></path>
                    <path d="M60.3332662,29.6666446 L57.4972204,29.6666446 C57.4262166,29.2652637 57.3309656,28.8841809 57.2083873,28.5260815 C56.9167108,27.6737987 56.5064841,26.9251389 55.9772331,26.2799439 C55.4836815,25.6718701 54.8939312,25.1881121 54.2076662,24.828749 C53.5214803,24.469386 52.7656331,24.2903363 51.9407567,24.2903363 C51.2591516,24.2903363 50.5729656,24.4745987 49.8821987,24.8431236 C49.1914318,25.2115694 48.6127389,25.6718701 48.1465146,26.2252892 L48.0391006,26.1973299 L48.0391006,24.663442 L47.8502573,24.4974242 L43.3294701,24.8015006 L43.3294701,25.713572 C43.5989529,25.7324484 43.8763338,25.7715439 44.1640611,25.8307796 C44.4506038,25.891358 44.6751465,25.9759465 44.8366624,26.0866777 C45.0521223,26.2435338 45.2266701,26.4506217 45.3614115,26.7084153 C45.4961529,26.9668408 45.5632866,27.2337962 45.5632866,27.5104662 L45.5632866,29.6667236 L32.7493478,29.6667236 L32.7493478,23.7956 C32.7493478,22.9362879 32.7630115,21.9649019 32.789786,20.8808892 C32.8164025,19.7968764 32.8437299,18.8502904 32.8704255,18.0404204 L31.7537936,18.0404204 C31.4218369,18.6133478 30.8722879,19.1491541 30.1053834,19.6472076 C29.338479,20.145893 28.4706369,20.3945248 27.5018573,20.3945248 L26.7615694,20.3945248 L26.7615694,21.9648229 L30.1117809,21.9648229 L30.1117809,29.6666446 L16.446665,29.6666446 L16.446665,24.0409936 L16.244158,23.8378548 L11.4140815,24.1867924 L11.4140815,25.147042 C11.8085911,25.1666293 12.1653478,25.1887439 12.4837197,25.2128331 C12.8020917,25.2369223 13.0423516,25.3072153 13.2037885,25.4230803 C13.4276994,25.597549 13.602879,25.808507 13.7285376,26.0552433 C13.8541962,26.3026115 13.9166701,26.5858369 13.9166701,26.9055516 L13.9166701,29.6665656 L8.3737121,29.6665656 L8.3737121,24.0415465 L8.17183694,23.8377758 L3.7448,24.1867134 L3.7448,25.1469631 C4.01562548,25.1665503 4.27278726,25.2029605 4.5169172,25.2563516 C4.76041529,25.3097427 4.96355414,25.3943312 5.12633376,25.5101962 C5.36067006,25.684665 5.5390879,25.891042 5.6614293,26.1280637 C5.78321783,26.3657172 5.84379618,26.6586573 5.84379618,27.0069631 L5.84379618,29.6664866 L2.33333248,29.6664866 L2.33333248,31.6664408 L5.84379618,31.6664408 L5.84379618,33.8670064 C5.84379618,35.4464662 6.1504,36.650214 6.76368662,37.4783287 C7.3776051,38.3070752 8.27087898,38.721172 9.44406115,38.721172 C10.1334854,38.721172 10.6661325,38.6534854 11.0423975,38.5174013 C11.4180306,38.3813172 11.8080382,38.1827592 12.2109987,37.9209376 C12.5599363,37.6977376 12.8692255,37.4476841 13.1380764,37.1716459 C13.4062955,36.8948968 13.648451,36.6359185 13.863279,36.3930522 L13.9439975,36.3930522 L13.9439975,38.2120611 L14.1464255,38.4158318 L18.4778166,38.0954854 L18.4778166,37.1352357 C18.2089656,37.1260739 17.9622293,37.1039592 17.7382395,37.0701554 C17.5136178,37.0362726 17.3209834,36.9659796 17.1594675,36.8591185 C16.9348459,36.6944433 16.7603771,36.4958064 16.6347185,36.2634446 C16.5090599,36.0311618 16.446586,35.7497529 16.446586,35.4203236 L16.446586,31.6665987 L30.1119389,31.6665987 L30.1119389,35.0833911 C30.1119389,35.6432076 30.0384076,36.0637809 29.8906344,36.344479 C29.7422293,36.6243083 29.528665,36.8274471 29.2512841,36.9517631 C29.0357452,37.038958 28.6432102,37.1229936 28.0742318,37.2037121 C27.5039108,37.2850624 27.0846013,37.3377427 26.8157503,37.3626217 L26.8157503,38.6894217 L35.8840994,38.6894217 L35.8840994,37.3627006 C35.6236994,37.3503006 35.2291108,37.2877478 34.7005707,37.1758318 C34.1706089,37.0639159 33.7897631,36.939521 33.5566904,36.8021732 C33.2963694,36.6407363 33.0971796,36.3881554 32.9584102,36.0456943 C32.8190879,35.7033121 32.7494268,35.3137783 32.7494268,34.8777248 L32.7494268,31.6665987 L45.5632076,31.6665987 L45.5632076,42.0078038 C45.5632076,42.321042 45.5091057,42.5924204 45.4016917,42.8228866 C45.2942777,43.0533529 45.1055134,43.2147898 44.8366624,43.3065656 C44.6302854,43.370935 44.3972127,43.4172968 44.1368127,43.445335 C43.8763338,43.4726624 43.6074828,43.4954089 43.3294701,43.5142854 L43.3294701,44.4264357 L50.7434854,44.4264357 L50.7434854,43.5142854 C50.4830854,43.5045707 50.1536561,43.4608943 49.7539338,43.3827822 C49.3555541,43.3034064 49.0481605,43.2226879 48.8327796,43.1400739 C48.5723006,43.0384255 48.3796662,42.8763567 48.2540076,42.6548943 C48.128349,42.4335108 48.0657962,42.1562879 48.0657962,41.8241732 L48.0657962,37.7232484 L48.1732102,37.7232484 C48.4961631,37.9718013 48.9134191,38.1887618 49.4245045,38.3730242 C49.9363006,38.5572866 50.5906573,38.6490624 51.3894701,38.6490624 C52.2141885,38.6490624 52.9948357,38.4784637 53.7305427,38.1379771 C54.4656968,37.7974904 55.1341911,37.3084408 55.7351567,36.6731185 C56.3087159,36.0468 56.7709121,35.2889783 57.1211924,34.3997325 C57.4470675,33.570828 57.6192459,32.6589936 57.6414395,31.6665987 L60.3334242,31.6665987 L60.3334242,29.6666446 L60.3332662,29.6666446 Z M13.9166701,35.0286573 C13.817707,35.2226344 13.677042,35.4330395 13.4928586,35.6608994 C13.3085962,35.8880484 13.0963745,36.1041401 12.8542191,36.307358 C12.5938191,36.5300051 12.2708662,36.7239822 11.8854395,36.8886573 C11.4993809,37.0534115 11.0599312,37.1354726 10.5664586,37.1354726 C9.96549299,37.1354726 9.44990573,36.8737299 9.01953885,36.3496917 C8.58854013,35.8262064 8.3737121,35.0456382 8.3737121,34.0079873 L8.3737121,31.6665987 L13.9166701,31.6665987 L13.9166701,35.0286573 L13.9166701,35.0286573 Z M48.0657172,27.3443694 C48.4062828,26.9296408 48.8099541,26.5728841 49.2766522,26.2733885 C49.7428764,25.973893 50.3079847,25.8241452 50.9719771,25.8241452 C51.6627439,25.8241452 52.2545478,25.9895312 52.7480204,26.3215669 C53.2408611,26.6536025 53.6405834,27.0864968 53.9452917,27.6204076 C54.249921,28.1457885 54.4745427,28.7629452 54.6183669,29.4725885 C54.6314777,29.5374318 54.6432459,29.6020382 54.655172,29.6666446 L48.0656382,29.6666446 L48.0656382,27.3443694 L48.0657172,27.3443694 Z M54.5780866,34.0884688 C54.4075669,34.8442369 54.142507,35.5077554 53.7837758,36.0787083 C53.4699847,36.5761299 53.0793452,36.9608459 52.613279,37.2323032 C52.1471338,37.5044713 51.6627439,37.6406344 51.1601885,37.6406344 C50.6940433,37.6406344 50.2996127,37.5689197 49.9765809,37.4263592 C49.653628,37.2831669 49.3529478,37.0969299 49.074935,36.8663847 C48.8503134,36.6731185 48.6465427,36.4426522 48.4622803,36.1756178 C48.2786497,35.9081096 48.1465146,35.6503159 48.0657172,35.4016051 L48.0657172,31.6665987 L54.8320892,31.6665987 C54.8256917,32.5548968 54.7414191,33.3627134 54.5780866,34.0884688 L54.5780866,34.0884688 Z" id="Shape"></path>
                    <g transform="translate(17.059873, 8.608917)" id="Shape">
                        <path d="M1.05084076,5.02910828 C0.763034395,5.02910828 0.52348535,4.97311083 0.332035669,4.85977325 C0.140664968,4.74651465 0.0449401274,4.59810955 0.0449401274,4.41447898 C0.0449401274,4.32854777 0.0728993631,4.24711847 0.129607643,4.17161274 C0.185605096,4.09602803 0.254634395,4.05827516 0.335984713,4.05827516 C0.414096815,4.05827516 0.476649682,4.07849427 0.524828025,4.11822166 C0.572374522,4.15858089 0.609416561,4.20541656 0.63682293,4.25951847 C0.666124841,4.31551592 0.691477707,4.38193885 0.713671338,4.46005096 C0.736417834,4.53745223 0.755294268,4.60134777 0.770932484,4.65078981 C0.800234395,4.6872 0.840593631,4.72171465 0.892010191,4.75299108 C0.943426752,4.78426752 1.01766879,4.79990573 1.11465732,4.79990573 C1.32498344,4.79990573 1.48381401,4.74130191 1.59122803,4.62409427 C1.69927389,4.50751847 1.7533758,4.35003057 1.7533758,4.15076178 C1.7533758,4.00362038 1.7025121,3.88641274 1.6016535,3.79921783 C1.5007949,3.7113121 1.35033631,3.63059363 1.14980382,3.55769427 C1.07816815,3.53163057 0.993500637,3.49190318 0.895880255,3.43922293 C0.79889172,3.38654268 0.721411465,3.32920255 0.662807643,3.2686242 C0.593146497,3.1995949 0.536517197,3.11761274 0.493551592,3.02251975 C0.451217834,2.92742675 0.429735032,2.81487898 0.429735032,2.68527134 C0.429735032,2.40860127 0.541098089,2.16897325 0.763745223,1.96717707 C0.98576051,1.76530191 1.25919236,1.66381146 1.58404076,1.66381146 C1.66017834,1.66381146 1.74160764,1.66839236 1.82880255,1.67684331 C1.91670828,1.68529427 2.01306497,1.70938344 2.11724076,1.74847898 C2.20901656,1.78299363 2.28649682,1.83377834 2.35094522,1.90209682 C2.41476178,1.96978344 2.44667006,2.05768917 2.44667006,2.16573503 C2.44667006,2.25427261 2.42060637,2.33435924 2.36721529,2.40662675 C2.31319236,2.47889427 2.24289936,2.51530446 2.15562548,2.51530446 C2.08335796,2.51530446 2.02412229,2.49769172 1.97791847,2.46317707 C1.93100382,2.42866242 1.89198726,2.3824586 1.86071083,2.32385478 C1.83014522,2.26596178 1.80471338,2.2034879 1.78512611,2.13635414 C1.76561783,2.06922038 1.74476688,2.00350828 1.72138854,1.93905987 C1.68426752,1.92144713 1.65101656,1.90975796 1.62242548,1.90328153 C1.59249172,1.89672611 1.55410701,1.8934879 1.50521783,1.8934879 C1.31511083,1.8934879 1.1705758,1.9501172 1.07232357,2.06400764 C0.973992357,2.17734522 0.925182166,2.31208662 0.925182166,2.46767898 C0.925182166,2.61932229 0.969490446,2.73329172 1.05794904,2.81006115 C1.14648662,2.88690955 1.29236433,2.96636433 1.49676688,3.0483465 C1.76111592,3.15378599 1.95311847,3.27486369 2.07230064,3.4116586 C2.19203567,3.54774268 2.25135032,3.7162879 2.25135032,3.91682038 C2.25135032,4.24561783 2.13809172,4.5132051 1.91023185,4.71958217 C1.68363567,4.92627516 1.39654013,5.02910828 1.05084076,5.02910828 L1.05084076,5.02910828 Z"></path>
                        <path d="M4.21742166,4.57986497 L4.1738242,4.78687389 C3.99477452,4.86632866 3.85221401,4.92224713 3.74543185,4.95352357 C3.63801783,4.9848 3.54687389,5.00035924 3.47136815,5.00035924 C3.3157758,5.00035924 3.1992,4.95549809 3.1210879,4.86561783 C3.04360764,4.77644841 3.0045121,4.6657172 3.0045121,4.53358217 C3.0045121,4.48414013 3.00838217,4.43201274 3.01620127,4.37798981 C3.02402038,4.32459873 3.0363414,4.25620127 3.05458599,4.17414013 L3.36253248,2.79718726 C3.37753885,2.72168153 3.39309809,2.64088408 3.40747261,2.55432102 C3.42184713,2.46775796 3.42958726,2.39477962 3.42958726,2.33428025 C3.42958726,2.21320255 3.41142166,2.13248408 3.37556433,2.09275669 C3.33970701,2.0530293 3.2661758,2.03288917 3.15544459,2.03288917 C3.11311083,2.03288917 3.05584968,2.0406293 2.98555669,2.05571465 C2.91455287,2.07064204 2.86052994,2.08367389 2.82411975,2.09409936 L2.8677172,1.88709045 C3.01943949,1.81158471 3.15481274,1.75558726 3.27589045,1.71917707 C3.39570446,1.6826879 3.4914293,1.66381146 3.56101146,1.66381146 C3.72055287,1.66381146 3.83578599,1.70606624 3.9080535,1.79010191 C3.97968917,1.87469045 4.01546752,1.98802803 4.01546752,2.13058854 C4.01546752,2.16968408 4.01159745,2.22236433 4.00377834,2.28941911 C3.99595924,2.35647389 3.98427006,2.42289682 3.96926369,2.48995159 L3.65942166,3.86690446 C3.63983439,3.95086115 3.62293248,4.03355414 3.60863694,4.11498344 C3.5943414,4.19570191 3.58715414,4.26212484 3.58715414,4.31417325 C3.58715414,4.43722548 3.61187516,4.52126115 3.6613172,4.56675414 C3.71020637,4.61169427 3.79021401,4.63444076 3.90094522,4.63444076 C3.93735541,4.63444076 3.99011465,4.62922803 4.05906497,4.6181707 C4.12762038,4.60790318 4.18101146,4.59487134 4.21742166,4.57986497 L4.21742166,4.57986497 Z M4.42458854,0.441187261 C4.42458854,0.563607643 4.38873121,0.671021656 4.31646369,0.762797452 C4.24490701,0.854652229 4.15502675,0.900145223 4.04824459,0.900145223 C3.94936051,0.900145223 3.86398217,0.856547771 3.79171465,0.769273885 C3.72007898,0.682078981 3.68430064,0.582405096 3.68430064,0.469857325 C3.68430064,0.351385987 3.72015796,0.247763057 3.79171465,0.159304459 C3.86398217,0.070766879 3.94928153,0.0264585987 4.04824459,0.0264585987 C4.15889682,0.0264585987 4.24940892,0.0681605096 4.31978089,0.15148535 C4.38936306,0.234178344 4.42458854,0.331166879 4.42458854,0.441187261 L4.42458854,0.441187261 Z"></path>
                        <path d="M7.75394904,4.55703949 L7.71035159,4.76412739 C7.53454013,4.84160764 7.39845605,4.89823694 7.30075669,4.93409427 C7.20313631,4.96987261 7.10417325,4.98748535 7.00521019,4.98748535 C6.84890701,4.98748535 6.73177834,4.94254522 6.65429809,4.85266497 C6.57618599,4.76349554 6.53709045,4.65284331 6.53709045,4.5206293 C6.53709045,4.4730828 6.54096051,4.42103439 6.54877962,4.36369427 C6.55659873,4.30643312 6.56891975,4.23866752 6.58716433,4.16126624 L6.8749707,2.95293758 C6.8964535,2.85981911 6.91335541,2.77586242 6.92575541,2.70035669 C6.93878726,2.62485096 6.94534268,2.56427261 6.94534268,2.51870064 C6.94534268,2.37416561 6.91406624,2.25964331 6.8522242,2.17560764 C6.79038217,2.09157197 6.69923822,2.0493172 6.57744968,2.0493172 C6.45961019,2.0493172 6.32810701,2.0922828 6.18096561,2.17884586 C6.0350879,2.26540892 5.89710828,2.39043567 5.76821146,2.55518981 L5.26952611,4.93211975 L4.72526879,4.93211975 L5.1621121,2.83312357 C5.17190573,2.78107516 5.18620127,2.70620127 5.20444586,2.60787006 C5.22332229,2.50953885 5.2324051,2.43016306 5.2324051,2.36958471 C5.2324051,2.24913885 5.21352866,2.16778854 5.17703949,2.12679745 C5.13991847,2.08572739 5.06575541,2.06558726 4.95439236,2.06558726 C4.91142675,2.06558726 4.85677197,2.07340637 4.79034904,2.08967643 C4.72392611,2.1059465 4.67187771,2.11897834 4.63475669,2.13003567 L4.67835414,1.92302675 C4.83134013,1.84744204 4.96608153,1.79144459 5.08328917,1.75432357 C5.20041783,1.71791338 5.30072357,1.69966879 5.3853121,1.69966879 C5.53892994,1.69966879 5.64966115,1.74587261 5.71608408,1.83899108 C5.78250701,1.93210955 5.8176535,2.06029554 5.82152357,2.22433885 L5.83913631,2.22433885 C6.05206879,2.03423185 6.23562038,1.89364586 6.39058089,1.80187006 C6.5455414,1.71001529 6.72190573,1.66381146 6.9192,1.66381146 C7.10535796,1.66381146 7.25060382,1.72438981 7.35533248,1.84412484 C7.45950828,1.96393885 7.51163567,2.1207949 7.51163567,2.31477197 C7.51163567,2.35386752 7.50642293,2.42289682 7.49599745,2.52249172 C7.48557197,2.62208662 7.46867006,2.71978599 7.44521274,2.81732739 L7.19981911,3.85703185 C7.18220637,3.92614013 7.16530446,4.00551592 7.14840255,4.09539618 C7.13213248,4.18456561 7.12368153,4.25422675 7.12368153,4.30437962 C7.12368153,4.42751083 7.14840255,4.51075669 7.19658089,4.55506497 C7.24547006,4.59937325 7.32547771,4.6214879 7.43620892,4.6214879 C7.47261911,4.6214879 7.52601019,4.61501146 7.59503949,4.60063694 C7.66406879,4.58642038 7.71745987,4.57204586 7.75394904,4.55703949 L7.75394904,4.55703949 Z"></path>
                        <path d="M9.16344204,5.02326369 C8.82358726,5.02326369 8.55465732,4.91261146 8.35736306,4.69249172 C8.16006879,4.47237197 8.06181656,4.15929172 8.06181656,3.75301401 C8.06181656,3.48345223 8.09893758,3.2243949 8.17381146,2.97757962 C8.24868535,2.73021146 8.35286115,2.51080255 8.4869707,2.31808917 C8.62108025,2.12600764 8.79104713,1.96915159 8.99608153,1.84673121 C9.2011949,1.72502166 9.42905478,1.66381146 9.67974013,1.66381146 C9.95775287,1.66381146 10.1693427,1.72960255 10.3138777,1.85976306 C10.4584127,1.99063439 10.5312331,2.15467771 10.5312331,2.35323567 C10.5312331,2.50235159 10.4993248,2.63259108 10.4362191,2.74450701 C10.3730344,2.85713376 10.2780204,2.91313121 10.1517299,2.91313121 C10.0468433,2.91313121 9.96809936,2.8838293 9.91605096,2.82593631 C9.8633707,2.76796433 9.83722803,2.70351592 9.83722803,2.63259108 C9.83722803,2.56356178 9.85807898,2.46981146 9.89978089,2.34999745 C9.94211465,2.23089427 9.97536561,2.1344586 10.0000866,2.06155924 C9.97923567,2.00358726 9.93105732,1.96133248 9.85752611,1.93392611 C9.78391592,1.90723057 9.7071465,1.89356688 9.62705987,1.89356688 C9.36271083,1.89356688 9.13492994,2.06479745 8.94348025,2.40662675 C8.75210955,2.74845605 8.65638471,3.16768662 8.65638471,3.66376561 C8.65638471,3.97044841 8.71822675,4.21323567 8.84191083,4.39362803 C8.96567389,4.5739414 9.13295541,4.66374268 9.3425707,4.66374268 C9.53141401,4.66374268 9.69940637,4.6078242 9.84646879,4.49511847 C9.99361019,4.38320255 10.1341962,4.22492484 10.2683057,4.01989045 L10.4350344,4.15526369 C10.3008459,4.39094268 10.118558,4.59408153 9.8881707,4.76523312 C9.6575465,4.93733248 9.41673376,5.02326369 9.16344204,5.02326369 L9.16344204,5.02326369 Z"></path>
                        <path d="M13.2916943,2.33830828 C13.2916943,2.56751083 13.2272459,2.76409427 13.098349,2.92821656 C12.9688204,3.09225987 12.7806879,3.22313121 12.5338726,3.32011975 C12.3535592,3.39365096 12.1705605,3.45351847 11.9857452,3.4984586 C11.8014828,3.54403057 11.5977121,3.58178344 11.3737223,3.61242803 C11.3737223,3.95291465 11.4310624,4.21331465 11.544321,4.39370701 C11.6582115,4.57402038 11.8242293,4.66382166 12.0442701,4.66382166 C12.2383261,4.66382166 12.4101885,4.60979873 12.5585936,4.50175287 C12.7077096,4.39433885 12.8535083,4.23353376 12.9974115,4.01996943 L13.1640611,4.15534268 C13.0084688,4.41898089 12.8137809,4.62930701 12.5807873,4.78687389 C12.3476357,4.94444076 12.1054803,5.02318471 11.8548739,5.02318471 C11.5110701,5.02318471 11.2480637,4.9157707 11.0664866,4.70228535 C10.8841987,4.48872102 10.7936866,4.18535541 10.7936866,3.79210955 C10.7936866,3.5199414 10.8320713,3.26025223 10.9089197,3.01343694 C10.9857682,2.76606879 11.0976841,2.53947261 11.2455363,2.33443822 C11.3894395,2.13390573 11.5658038,1.97183694 11.7747873,1.84870573 C11.9837707,1.7256535 12.2142369,1.66389045 12.4675287,1.66389045 C12.7468051,1.66389045 12.9545248,1.72699618 13.0892662,1.85391847 C13.2246395,1.98020892 13.2916943,2.14172484 13.2916943,2.33830828 L13.2916943,2.33830828 Z M12.7552561,2.25893248 C12.7552561,2.1749758 12.7448306,2.10847389 12.7239796,2.06029554 C12.701865,2.01148535 12.6751694,1.97570701 12.6419185,1.95224968 C12.606772,1.92618599 12.5702828,1.90991592 12.5312662,1.90343949 C12.4922497,1.89696306 12.4525223,1.89364586 12.4114522,1.89364586 C12.1783796,1.89364586 11.9635516,2.03549554 11.7656255,2.32006369 C11.569042,2.60392102 11.4440153,2.95807134 11.3912561,3.38251465 C11.5273401,3.36103185 11.680958,3.32983439 11.8515567,3.29010701 C12.0227873,3.25037962 12.1647159,3.19825223 12.2773427,3.1338828 C12.4387796,3.04139618 12.5585936,2.92221401 12.6374166,2.77704713 C12.7161605,2.63132739 12.7552561,2.45875414 12.7552561,2.25893248 L12.7552561,2.25893248 Z"></path>
                        <path d="M16.9367414,1.3565758 C16.8958293,1.51864459 16.8508892,1.70353885 16.802079,1.91189045 C16.7532688,2.11953121 16.7200968,2.26730446 16.7024841,2.35323567 L16.2994446,4.28810955 C16.2954166,4.30572229 16.2923363,4.32396688 16.2903618,4.34347516 C16.2883083,4.36306242 16.2877554,4.38130701 16.2877554,4.39820892 C16.2877554,4.45483822 16.2994446,4.50175287 16.3229019,4.53942675 C16.3455694,4.5772586 16.3736866,4.60458599 16.4068586,4.6214879 C16.4458752,4.6429707 16.5194854,4.66382166 16.6288739,4.68332994 C16.7375516,4.70220637 16.8247465,4.71460637 16.8905376,4.71847643 L16.8442548,4.93204076 L14.8807898,4.93204076 L14.9277045,4.71847643 C14.987572,4.71452739 15.0806904,4.70544459 15.2056382,4.69114904 C15.3314548,4.67748535 15.4192815,4.66247898 15.4700662,4.64755159 C15.5221146,4.63064968 15.5736892,4.59218599 15.6243159,4.53295032 C15.6744688,4.4730828 15.7077197,4.4040535 15.723358,4.32396688 L16.2030879,2.01993631 L15.475279,2.01993631 L15.5279592,1.76403822 L15.6887643,1.76403822 C15.8906395,1.76403822 16.0800357,1.72628535 16.2571898,1.64943694 C16.4334752,1.57258854 16.5800637,1.47496815 16.694507,1.35649682 L16.9367414,1.35649682 L16.9367414,1.3565758 Z"></path>
                        <path d="M20.5189197,2.77973248 C20.5189197,3.20425478 20.4472841,3.60847898 20.3047236,3.99201019 C20.1616102,4.37609427 19.9636051,4.71658089 19.7109452,5.01410191 C19.4623134,5.30704204 19.1607643,5.55377834 18.8059822,5.75431083 C18.4519108,5.95484331 18.070907,6.07987006 17.6647083,6.1293121 L17.6647083,5.81552102 L17.938851,5.78692994 C18.3958344,5.64436943 18.7708357,5.42164331 19.0658293,5.11890955 C19.3601121,4.81546497 19.5820484,4.43138089 19.7318752,3.96531465 C19.5313427,4.12935796 19.3425783,4.24064204 19.1636076,4.29995669 C18.984479,4.35919236 18.8021911,4.38849427 18.6154803,4.38849427 C18.3393631,4.38849427 18.108186,4.27910573 17.9213962,4.06032866 C17.7345274,3.84155159 17.6414089,3.56101146 17.6414089,3.21855032 C17.6414089,2.97963312 17.6843745,2.74853503 17.7696739,2.52651975 C17.8556051,2.30513631 17.9741554,2.10531465 18.1257987,1.92887134 C18.2710446,1.76095796 18.4487516,1.62353121 18.657735,1.51674904 C18.8667185,1.40996688 19.0854955,1.35665478 19.315251,1.35665478 C19.674614,1.35665478 19.9650268,1.48420892 20.1863312,1.73813248 C20.4082675,1.99260892 20.5189197,2.33965096 20.5189197,2.77973248 L20.5189197,2.77973248 Z M19.9153478,2.64957197 C19.9153478,2.32401274 19.8554803,2.0674828 19.7344025,1.87871847 C19.6139567,1.69058599 19.4576535,1.59620382 19.265572,1.59620382 C19.0943414,1.59620382 18.9452255,1.65022675 18.819014,1.75764076 C18.6926446,1.86576561 18.5872841,1.99979618 18.5013529,2.16194395 C18.417949,2.31887898 18.3568178,2.49010955 18.318907,2.67563567 C18.2812331,2.86052994 18.2623567,3.02457325 18.2623567,3.16650191 C18.2623567,3.42303185 18.323014,3.63067261 18.4447236,3.79021401 C18.5664331,3.94975541 18.7265274,4.02984204 18.9270599,4.02984204 C19.0768076,4.02984204 19.2252127,3.99919745 19.372986,3.93735541 C19.5208382,3.8762242 19.6608713,3.77789299 19.7929274,3.64180892 C19.8143312,3.56630318 19.839921,3.44775287 19.8697758,3.2863949 C19.9003414,3.1248 19.9153478,2.91257834 19.9153478,2.64957197 L19.9153478,2.64957197 Z"></path>
                        <path d="M23.8978013,2.77973248 C23.8978013,3.20425478 23.8261656,3.60847898 23.6836051,3.99201019 C23.5403338,4.37609427 23.3424866,4.71658089 23.0898268,5.01410191 C22.8411159,5.30704204 22.5397248,5.55377834 22.1848637,5.75431083 C21.8300815,5.95484331 21.4498675,6.07987006 21.0436688,6.1293121 L21.0436688,5.81552102 L21.3176535,5.78692994 C21.7740841,5.64436943 22.1497172,5.42164331 22.444,5.11890955 C22.7389936,4.81546497 22.9610089,4.43138089 23.1106777,3.96531465 C22.9102242,4.12935796 22.7206701,4.24064204 22.5416994,4.29995669 C22.3632815,4.35919236 22.1803618,4.38849427 21.9940459,4.38849427 C21.7180866,4.38849427 21.4869096,4.27910573 21.3001987,4.06032866 C21.113251,3.84155159 21.0201325,3.56101146 21.0201325,3.21855032 C21.0201325,2.97963312 21.0630981,2.74853503 21.1483975,2.52651975 C21.2343287,2.30513631 21.352879,2.10531465 21.5038904,1.92887134 C21.6497682,1.76095796 21.8275541,1.62353121 22.0363796,1.51674904 C22.2448102,1.40996688 22.4640611,1.35665478 22.6939745,1.35665478 C23.0534166,1.35665478 23.3437503,1.48420892 23.5650548,1.73813248 C23.7865172,1.99260892 23.8978013,2.33965096 23.8978013,2.77973248 L23.8978013,2.77973248 Z M23.2943083,2.64957197 C23.2943083,2.32401274 23.233651,2.0674828 23.1133631,1.87871847 C22.9929172,1.69058599 22.836614,1.59620382 22.6439796,1.59620382 C22.472749,1.59620382 22.324265,1.65022675 22.1980535,1.75764076 C22.0716051,1.86576561 21.9660866,1.99979618 21.8802344,2.16194395 C21.7969096,2.31887898 21.7358573,2.49010955 21.6979465,2.67563567 C21.6601936,2.86052994 21.6413172,3.02457325 21.6413172,3.16650191 C21.6413172,3.42303185 21.7018955,3.63067261 21.8236051,3.79021401 C21.9446828,3.94975541 22.1055669,4.02984204 22.3060204,4.02984204 C22.4557682,4.02984204 22.6042522,3.99919745 22.7519465,3.93735541 C22.8997197,3.8762242 23.0397529,3.77789299 23.1718089,3.64180892 C23.1927389,3.56630318 23.2187236,3.44775287 23.2486573,3.2863949 C23.2786701,3.1248 23.2943083,2.91257834 23.2943083,2.64957197 L23.2943083,2.64957197 Z"></path>
                        <path d="M27.259149,4.23353376 L27.1713223,4.64107516 L26.5586675,4.64107516 L26.2519847,6.11375287 L25.692721,6.11375287 L25.998772,4.64107516 L24.1250293,4.64107516 L24.2416051,4.11048153 L26.8282293,1.37608408 L27.2382981,1.37608408 L26.643335,4.23353376 L27.259149,4.23353376 L27.259149,4.23353376 Z M26.5293656,2.09417834 L24.4973452,4.23353376 L26.0839134,4.23353376 L26.5293656,2.09417834 L26.5293656,2.09417834 Z"></path>
                    </g>
                </g>
            </g>
        </g>
    </g>
</svg>