<?xml version="1.0" encoding="utf-8"?>
<!-- Generator: Adobe Illustrator 16.0.0, SVG Export Plug-In . SVG Version: 6.00 Build 0)  -->
<!DOCTYPE svg PUBLIC "-//W3C//DTD SVG 1.1//EN" "http://www.w3.org/Graphics/SVG/1.1/DTD/svg11.dtd">
<svg version="1.1" id="レイヤー_1" xmlns:sketch="http://www.bohemiancoding.com/sketch/ns"
	 xmlns="http://www.w3.org/2000/svg" xmlns:xlink="http://www.w3.org/1999/xlink" x="0px" y="0px" width="415px" height="94px"
	 viewBox="0 0 415 94" enable-background="new 0 0 415 94" xml:space="preserve">
<g enable-background="new    ">
	<path fill="#403C3D" d="M26.595,64.479c0,1.08,0.144,1.656,1.152,1.944c1.08,0.288,3.168,0.216,6.121,0.216
		c4.896,0,6.192-0.071,7.345-0.863c0.864-0.576,1.44-1.585,1.512-3.673c1.152,0.721,2.736,1.225,4.392,1.584l2.448-2.088
		c0.72-0.648,0.936-0.576,1.512-0.144c3.528,2.448,7.272,5.472,10.225,8.712c0.576,0.576,0.504,0.721-0.216,1.297l-3.384,2.952
		c-0.432,0.359-0.648,0.504-0.864,0.504c-0.288,0-0.432-0.216-0.72-0.504c-2.16-2.448-4.825-5.112-7.489-7.417
		c-0.648,1.656-1.656,2.664-3.096,3.312c-2.016,0.936-4.896,1.152-12.745,1.152h-2.592c-0.792,0.792-1.656,1.584-2.52,2.231h16.129
		c0.72,0,1.224-0.071,1.512-0.216c0.36-0.144,0.576-0.216,0.936-0.216c0.576,0,1.008,0.144,2.52,1.512s2.016,1.873,2.016,2.377
		c0,0.647-0.36,1.008-1.008,1.224c-0.648,0.216-1.512,1.008-2.809,1.944c-2.16,1.584-4.392,2.952-6.696,4.177
		c7.776,1.655,16.633,2.16,25.634,2.088c-0.864,1.08-1.584,2.521-2.16,4.464c-0.648,1.801-0.648,1.801-2.665,1.729
		c-11.017-0.576-20.521-2.16-28.298-4.896c-8.208,2.952-17.425,4.393-28.083,4.969c-1.728,0.071-1.728,0.071-2.304-1.44
		c-0.792-1.944-1.512-3.24-2.304-4.248c9.793-0.288,17.93-1.152,24.914-2.809c-2.52-1.368-4.752-2.952-6.769-4.752
		c-3.384,1.656-7.272,3.023-11.665,4.176c-1.8,0.433-1.8,0.433-2.664-1.224s-1.584-2.593-2.376-3.457
		c9.145-1.584,16.129-4.248,21.458-8.28l-0.576-0.216c-1.728-0.648-2.592-1.872-2.592-4.393v-2.376c0-1.225-0.072-2.16-0.288-3.744
		c2.304,0.071,4.464,0.288,6.552,0.504c0.936,0.144,1.08,0.359,1.08,0.647c0,0.36-0.072,0.576-0.288,0.864
		c-0.216,0.36-0.288,0.721-0.288,1.656V64.479z M11.041,34.31c-6.48,0-8.712,0.144-9.145,0.144c-0.72,0-0.792-0.072-0.792-0.792
		v-4.536c0-0.648,0.072-0.721,0.792-0.721c0.432,0,2.664,0.145,9.145,0.145h43.42c6.409,0,8.641-0.145,9.073-0.145
		c0.792,0,0.864,0.072,0.864,0.721v4.536c0,0.72-0.072,0.792-0.864,0.792c-0.432,0-2.664-0.144-9.073-0.144H35.235l-1.296,2.808
		h8.641c6.84,0,9.145-0.144,9.649-0.144c0.72,0,0.792,0.072,0.792,0.864c0,0.432-0.144,2.231-0.144,6.048v10.729h0.72
		c6.625,0,8.929-0.145,9.433-0.145c0.72,0,0.792,0.072,0.792,0.792c0,0.433-0.144,1.297-0.144,2.305v1.8
		c0,4.608,0.144,5.329,0.144,5.761c0,0.72-0.072,0.792-0.792,0.792h-5.473c-0.72,0-0.792-0.072-0.792-0.792v-6.049H35.812
		c1.368,1.009,2.592,2.16,3.816,3.457c0.504,0.575,0.432,0.72-0.36,1.151l-3.456,1.872c-0.936,0.505-1.152,0.36-1.729-0.359
		c-1.008-1.296-2.376-2.736-4.032-4.032c-0.576-0.505-0.504-0.721,0.288-1.08l2.16-1.009H8.521v6.192
		c0,0.721-0.072,0.793-0.72,0.793H2.329c-0.72,0-0.792-0.072-0.792-0.793c0-0.504,0.144-1.151,0.144-5.832v-1.512
		c0-1.368-0.144-2.16-0.144-2.665c0-0.72,0.072-0.792,0.792-0.792c0.432,0,2.808,0.145,9.361,0.145h0.504V43.886
		c0-3.816-0.144-5.616-0.144-6.048c0-0.792,0.072-0.864,0.864-0.864c0.432,0,2.808,0.144,9.577,0.144h4.176l1.296-2.808H11.041z
		 M5.353,70.889c-0.288-0.288-0.432-0.504-0.432-0.721c0-0.216,0.288-0.432,0.648-0.647c3.096-1.944,5.688-4.608,7.632-7.705
		c0.216-0.288,0.36-0.432,0.648-0.432c0.216,0,0.504,0.144,0.864,0.36l3.096,1.943c0.792,0.504,0.792,0.721,0.36,1.368
		c-2.304,3.528-5.041,6.553-8.425,8.713c-0.648,0.36-1.008,0.433-1.656-0.216L5.353,70.889z M19.178,40.79v2.448H45.82V40.79H19.178
		z M45.82,48.927v-2.521H19.178v2.521H45.82z M45.82,54.615v-2.593H19.178v2.593H45.82z M24.146,78.161
		c2.376,1.656,5.041,2.952,8.064,4.104c3.096-1.152,5.833-2.521,8.425-4.104H24.146z"/>
</g>
<g enable-background="new    ">
	<path fill="#403C3D" d="M86.457,31.646c0-1.944-0.072-3.457-0.36-5.329c2.16,0.072,3.672,0.216,5.688,0.433
		c0.576,0.071,0.936,0.288,0.936,0.72c0,0.36-0.216,0.576-0.36,0.936c-0.216,0.505-0.288,1.225-0.288,3.241v0.287
		c3.24,0,4.32-0.144,4.752-0.144c0.72,0,0.792,0.072,0.792,0.864v0.936c1.944-1.728,3.312-3.6,4.32-5.544
		c0.36-0.576,0.648-1.296,0.936-2.16c1.8,0.359,3.024,0.72,4.32,1.08c0.504,0.144,0.792,0.359,0.792,0.647s-0.144,0.505-0.432,0.721
		c-0.36,0.288-0.576,0.432-1.008,1.224l-0.216,0.36h4.465c5.112,0,6.769-0.145,7.2-0.145c0.72,0,0.792,0.072,0.792,0.793v2.52
		c0,0.721-0.072,0.792-0.792,0.792c-0.432,0-1.872-0.071-5.76-0.144v2.664h1.44c4.752,0,6.193-0.144,6.625-0.144
		c0.288,0,0.432,0,0.576,0.071c-0.144-0.144-0.144-0.359-0.144-0.72v-2.952c0-0.792,0.072-0.864,0.792-0.864
		c0.432,0,1.729,0.144,6.193,0.144v-0.359c0-1.729-0.072-3.169-0.36-5.185c2.16,0.072,3.745,0.144,5.761,0.36
		c0.648,0.071,0.864,0.288,0.864,0.72c0,0.36-0.216,0.576-0.36,1.008c-0.144,0.433-0.288,1.08-0.288,3.024v0.432h1.656
		c4.608,0,6.048-0.144,6.553-0.144c0.72,0,0.792,0.072,0.792,0.864v2.952c0,0.72-0.072,0.792-0.792,0.792
		c-0.504,0-2.088-0.144-6.553-0.144c2.52,2.952,5.617,5.184,9.505,7.2c-0.792,0.792-1.512,2.376-2.304,4.464
		c-0.144,0.433-0.36,0.648-0.648,0.648c-0.36,0-0.792-0.288-1.44-0.864c-2.952-2.592-5.184-4.824-7.057-7.704
		c0.144,4.752,0.432,8.641,0.432,9.217c0,0.72-0.072,0.792-0.864,0.792h-4.177c-0.72,0-0.792-0.072-0.792-0.792
		c0-0.433,0.216-4.249,0.36-8.713c-1.224,2.232-2.809,4.464-4.465,6.192c-0.432,0.432-0.648,0.648-0.936,0.648
		c-0.288,0-0.576-0.36-0.936-1.152c-0.576-1.152-1.152-2.088-1.728-2.736c-0.144,0.36-0.216,0.864-0.216,2.376v0.36
		c0,1.944,0.144,2.592,0.144,2.952c0,0.72-0.072,0.792-0.792,0.792c-0.432,0-1.944-0.144-6.192-0.144h-6.84
		c-4.249,0-5.761,0.144-6.193,0.144c-0.72,0-0.792-0.072-0.792-0.792c0-0.432,0.144-1.152,0.144-3.24v-0.504
		c0-1.008,0-2.017-0.144-3.456c1.08,0.071,3.457,0.144,4.464,0.287c0.36,0.072,0.648,0.145,0.648,0.505
		c0,0.288-0.072,0.359-0.216,0.647s-0.216,0.36-0.216,1.656v1.08h3.024V40.43h-1.584c-4.752,0-6.192,0.145-6.625,0.145
		c-0.792,0-0.864-0.072-0.864-0.792v-2.665c0-0.792,0.072-0.863,0.864-0.863c0.432,0,1.872,0.144,6.625,0.144h1.584v-2.664h-2.88
		l-0.648,0.864c-0.576,0.647-0.936,0.936-1.296,0.936c-0.288,0-0.648-0.216-1.152-0.576c-1.44-0.936-2.232-1.151-3.168-1.296v1.944
		c0,0.72-0.072,0.792-0.792,0.792c-0.36,0-1.296-0.072-3.889-0.144c1.512,1.943,3.528,3.6,6.193,5.472
		c-0.72,0.504-1.296,1.368-2.017,2.593c-0.432,0.72-0.72,1.08-1.008,1.08s-0.576-0.216-1.008-0.721
		c-1.08-1.224-2.304-2.88-3.312-4.32c0.144,4.608,0.36,8.281,0.36,8.785c0,0.72-0.072,0.792-0.792,0.792h-4.249
		c-0.648,0-0.72-0.072-0.72-0.792c0-0.504,0.144-4.032,0.216-8.497c-1.8,2.736-3.744,5.112-6.409,7.417
		c-0.576,0.504-0.936,0.792-1.224,0.792s-0.504-0.288-0.72-0.864c-0.576-1.512-1.656-3.024-2.376-3.744
		c3.312-2.088,6.265-4.464,8.929-7.992h-0.432c-4.465,0-5.761,0.144-6.193,0.144c-0.72,0-0.792-0.072-0.792-0.792v-2.952
		c0-0.792,0.072-0.864,0.792-0.864c0.432,0,1.728,0.144,6.193,0.144h2.088V31.646z M131.965,51.446c6.409,0,8.713-0.144,9.145-0.144
		c0.792,0,0.864,0.072,0.864,0.792c0,0.433-0.144,1.44-0.144,2.736v2.521c0,5.112,0.144,5.904,0.144,6.265
		c0,0.72-0.072,0.792-0.864,0.792h-5.473c-0.72,0-0.792-0.072-0.792-0.792v-6.985h-6.984c1.44,1.009,2.376,1.944,3.528,2.881
		c0.432,0.359,0.72,0.792,0.72,1.151c0,0.36-0.288,0.576-0.792,0.721c-0.576,0.144-1.152,0.504-2.016,1.152
		c-2.376,1.655-6.697,4.536-10.153,6.192c-0.576,0.288-1.008,0.359-1.296,0.359c-0.576,0-0.792-0.359-1.224-1.08
		c-0.504-0.936-1.512-2.088-2.305-2.808v3.384c0,3.24,0.144,4.824,0.144,5.257c0,0.72-0.072,0.792-0.792,0.792
		c-0.432,0-2.592-0.145-8.712-0.145H91.93c-6.121,0-8.281,0.145-8.713,0.145c-0.72,0-0.792-0.072-0.792-0.792
		c0-0.504,0.144-2.017,0.144-5.257v-4.176H78.68c-0.792,0-0.864-0.072-0.864-0.792c0-0.433,0.144-1.152,0.144-6.265v-2.089
		c0-1.728-0.144-2.664-0.144-3.168c0-0.72,0.072-0.792,0.864-0.792c0.432,0,2.665,0.144,9.073,0.144H131.965z M108.203,80.609
		c1.224,0.792,2.592,1.296,4.176,1.584c1.944,0.504,1.944,0.504,1.584,2.376c-0.216,1.009-0.504,2.017-0.864,2.952
		c8.929-2.376,15.841-6.408,21.386-10.729c0.936-0.72,1.584-1.44,2.376-2.592c1.944,1.439,3.096,2.376,4.32,3.672
		c0.504,0.504,0.72,0.792,0.72,1.224c0,0.505-0.36,0.721-0.864,0.864c-0.576,0.145-1.44,0.576-2.808,1.729
		c-4.896,4.032-12.313,8.425-19.658,10.729c-0.576,0.217-1.008,0.288-1.296,0.288c-0.576,0-0.792-0.359-1.44-1.368
		c-0.936-1.439-2.016-2.448-2.952-3.168c-0.504,1.08-1.224,1.944-2.16,2.592c-2.016,1.225-5.833,1.656-14.617,1.656
		c-5.833,0-9.577-0.144-11.017-0.863c-2.016-1.009-2.808-2.089-2.808-5.401v-4.176c0-2.305,0-4.32-0.36-6.192
		c2.304,0.071,4.536,0.216,6.625,0.576c0.936,0.071,1.224,0.432,1.224,0.792c0,0.359-0.144,0.432-0.432,0.792
		c-0.216,0.288-0.36,0.72-0.36,1.584c4.752-0.72,9.289-1.729,13.105-2.88c1.224-0.36,2.16-0.721,3.528-1.513
		c1.656,1.008,3.744,2.376,5.041,3.385c0.432,0.288,0.648,0.647,0.648,1.008c0,0.432-0.288,0.72-1.08,0.792L108.203,80.609z
		 M88.905,61.815c0.504-0.359,0.576-0.432,1.152-0.144c0.936,0.504,1.728,1.008,2.592,1.656c0.504,0.359,0.432,0.504-0.144,0.936
		l-0.792,0.576c-0.576,0.432-0.792,0.432-1.224,0.072c-0.864-0.792-1.8-1.368-2.736-1.872v6.984h10.513l-1.296-0.937
		c-0.36-0.216-0.432-0.432,0.144-0.863l1.008-0.792c0.288-0.217,0.432-0.145,0.936,0.144c0.792,0.432,1.8,1.224,2.448,1.944
		c0.288,0.359,0.288,0.359,0.216,0.504h7.345v-4.177l-0.504,0.433c-0.504,0.504-0.576,0.504-1.08,0.071
		c-0.864-0.863-1.728-1.439-2.736-2.088c-0.576-0.359-0.432-0.504,0.072-0.864l0.792-0.647c0.504-0.36,0.648-0.433,1.224-0.072
		c0.72,0.504,1.512,1.008,2.232,1.584c0-1.584-0.072-3.24-0.36-4.681c1.872,0.072,3.672,0.145,5.4,0.288
		c0.648,0.072,0.936,0.36,0.936,0.792c0,0.433-0.216,0.721-0.432,1.297c-0.216,0.576-0.288,1.439-0.288,2.664
		c4.537-1.656,7.993-3.889,11.017-6.121c0.72-0.504,1.296-1.008,1.872-1.872h-29.09c0.792,0.433,1.512,0.937,2.304,1.513
		c0.504,0.359,0.432,0.504-0.072,1.008l-0.72,0.648c-0.504,0.432-0.72,0.504-1.296,0.071c-0.936-0.792-1.944-1.439-3.096-2.088
		c-0.576-0.36-0.432-0.432,0-0.864l0.288-0.288H84.945V59.8c0.864,0,1.8,0.071,2.592,0.144c0.576,0.072,0.864,0.288,0.864,0.792
		c0,0.433-0.216,0.792-0.432,1.296l-0.216,0.505L88.905,61.815z M91.569,58.432c0.648-0.504,0.792-0.504,1.44-0.145
		c2.16,1.225,4.104,2.376,5.904,3.601c1.296-0.937,2.521-1.944,3.672-3.097c0.576-0.575,0.864-1.008,1.368-1.728
		c1.008,0.504,2.016,1.08,2.736,1.656c0.432,0.288,0.504,0.504,0.504,0.72c0,0.288-0.216,0.36-0.576,0.504
		c-0.432,0.145-0.792,0.433-1.584,1.08c-1.08,1.008-2.16,1.872-3.312,2.736l4.104,3.097c0.36,0.288,0.504,0.432,0.504,0.576
		c0,0.216-0.144,0.359-0.504,0.647l-1.152,0.937c-0.36,0.288-0.576,0.504-0.792,0.504c-0.216,0-0.432-0.145-0.72-0.433
		c-1.44-1.224-2.808-2.376-4.249-3.456c-1.944,1.296-4.032,2.448-6.265,3.456c-0.648,0.288-1.08,0.433-1.296,0.433
		c-0.36,0-0.504-0.145-0.72-0.433c-0.504-0.647-1.296-1.224-2.232-1.872c2.88-1.008,5.472-2.16,7.705-3.528
		c-1.728-1.151-3.601-2.231-5.617-3.384c-0.72-0.433-0.648-0.576,0-1.08L91.569,58.432z M88.978,84.642
		c0,0.937,0.216,1.368,1.152,1.656s2.52,0.216,7.272,0.216c5.185,0,8.137-0.432,9.145-1.368c0.792-0.792,1.224-2.304,1.368-4.464
		l-2.592,0.576c-4.825,1.224-10.369,2.447-16.345,3.24V84.642z M112.235,40.43v5.688h2.88v-1.728c0-0.576,0-1.297-0.072-2.448
		c0.936,0.071,3.457,0.144,4.464,0.287c0.36,0.072,0.576,0.145,0.648,0.36c2.232-1.656,4.537-3.744,6.121-6.336
		c-3.24,0.071-4.392,0.144-4.752,0.144h-0.504c0.144,0.072,0.144,0.36,0.144,0.72v2.665c0,0.72-0.072,0.792-0.864,0.792
		c-0.432,0-1.872-0.145-6.625-0.145H112.235z M137.149,68.008c0.504,0.505,0.648,0.792,0.648,1.08c0,0.505-0.288,0.648-0.864,0.792
		c-0.504,0.145-1.296,0.505-2.232,1.152c-4.248,3.385-10.369,7.057-15.697,9.146c-0.648,0.287-1.08,0.432-1.368,0.432
		c-0.504,0-0.72-0.432-1.296-1.368c-1.008-1.656-2.088-2.664-3.168-3.456c6.769-1.944,12.961-5.329,17.569-9.146
		c0.792-0.647,1.368-1.224,2.16-2.16C134.557,65.704,135.998,66.784,137.149,68.008z"/>
</g>
<g enable-background="new    ">
	<path fill="#403C3D" d="M182.558,53.913c0.483-0.162,0.697-0.162,0.805,0.43c0.269,1.342,0.43,2.95,0.483,4.347
		c0,0.482-0.215,0.59-0.645,0.644c-2.897,0.591-5.527,0.966-8.854,1.448c-3.435,9.07-6.602,16.478-10.465,23.023
		c-0.215,0.377-0.376,0.537-0.59,0.537c-0.161,0-0.375-0.106-0.644-0.268c-1.234-0.752-2.791-1.878-3.703-2.738
		c-0.269-0.214-0.376-0.374-0.376-0.59c0-0.161,0.054-0.375,0.268-0.644c4.025-6.654,6.87-12.29,9.285-18.73
		c-2.04,0.107-3.703,0.107-5.367,0.107c-1.18,0-1.609,0-2.951-0.054c-0.537,0-0.644-0.16-0.751-0.858
		c-0.269-1.021-0.429-2.791-0.537-4.562c2.2,0.161,3.435,0.215,4.991,0.215c2.093,0,3.704-0.054,6.172-0.27
		c0.644-2.253,1.02-4.078,1.395-6.01c0.322-1.879,0.322-2.684,0.322-4.347c2.308,0.322,4.615,0.645,6.279,1.127
		c0.536,0.107,0.858,0.429,0.858,0.805c0,0.429-0.161,0.697-0.483,1.02c-0.322,0.429-0.536,0.912-0.858,1.985
		c-0.376,1.288-0.805,2.952-1.288,4.562C177.996,54.879,180.464,54.396,182.558,53.913z M184.061,68.296
		c-0.054-1.448-0.107-2.308-0.43-3.811c2.629,0.269,4.025,0.483,5.85,1.021c0.482,0.107,0.751,0.374,0.751,0.857
		c0,0.107-0.107,0.484-0.322,1.127c-0.215,0.645-0.269,1.288-0.215,2.2c0,3.167,0.161,5.475,0.59,9.124
		c3.864,1.557,6.494,2.737,9.66,4.99c0.537,0.377,0.59,0.591,0.322,1.127c-0.805,1.665-1.557,3.007-2.469,4.348
		c-0.161,0.27-0.322,0.377-0.483,0.377c-0.161,0-0.322-0.107-0.537-0.323c-2.361-2.039-4.347-3.219-6.547-4.508
		c0,5.366-3.864,7.835-9.982,7.835c-5.903,0-9.875-3.004-9.875-7.621c0-4.668,3.864-7.835,9.929-7.835
		c1.02,0,2.522,0.055,4.239,0.322C184.221,74.092,184.114,70.817,184.061,68.296z M180.25,81.819c-2.684,0-4.777,1.074-4.777,3.112
		c0,1.719,1.503,2.576,4.562,2.576c2.898,0,4.669-1.556,4.669-3.811c0-0.482,0-0.75-0.054-1.072
		C183.362,82.196,181.913,81.819,180.25,81.819z M190.232,56.006c0.322-0.537,0.591-0.591,1.127-0.376
		c3.167,0.858,7.406,3.006,10.519,5.045c0.322,0.214,0.483,0.376,0.483,0.591c0,0.16-0.053,0.375-0.215,0.644
		c-0.536,1.181-1.502,2.845-2.254,3.971c-0.161,0.269-0.322,0.376-0.483,0.376c-0.161,0-0.268-0.053-0.483-0.215
		c-3.167-2.146-7.031-4.508-11.109-5.85C188.729,58.582,189.535,56.972,190.232,56.006z"/>
</g>
<g enable-background="new    ">
	<path fill="#C4B951" d="M230.866,90.114c-6.553,0-8.784,0.144-9.217,0.144c-0.791,0-0.863-0.071-0.863-0.72v-5.473
		c0-0.72,0.072-0.792,0.863-0.792c0.433,0,2.664,0.145,9.217,0.145h16.418V67.72H233.53c-6.84,0-9.217,0.145-9.648,0.145
		c-0.792,0-0.863-0.072-0.863-0.792v-5.4c0-0.721,0.071-0.792,0.863-0.792c0.432,0,2.809,0.144,9.648,0.144h13.754v-6.624h-2.809
		c-6.264,0-8.424,0.071-8.856,0.071c-0.72,0-0.792-0.071-0.792-0.72v-4.248c-3.457,2.16-7.129,3.96-11.018,5.688
		c-0.791,0.359-1.295,0.576-1.728,0.576c-0.505,0-0.792-0.433-1.44-1.656c-1.008-1.872-2.305-3.312-3.456-4.249
		c13.104-5.185,22.178-11.736,27.938-19.369c1.368-1.801,2.16-2.881,2.88-4.753c2.809,0.36,5.688,0.792,7.776,1.513
		c0.721,0.216,1.297,0.647,1.297,1.151c0,0.36-0.145,0.576-0.721,1.009c-0.144,0.144-0.287,0.216-0.432,0.288
		c8.496,10.009,18.506,15.481,30.387,18.793c-1.008,1.08-2.305,3.097-3.096,5.113c-0.576,1.296-0.793,1.8-1.369,1.8
		c-0.359,0-0.936-0.216-1.728-0.504c-4.104-1.584-7.921-3.385-11.521-5.473v4.32c0,0.648-0.072,0.72-0.793,0.72
		c-0.504,0-2.664-0.071-8.929-0.071h-3.888v6.624h14.977c6.841,0,9.217-0.144,9.648-0.144c0.721,0,0.793,0.071,0.793,0.792v5.4
		c0,1.008,0,0.792-0.793,0.792c-0.432,0-2.808-0.145-9.648-0.145h-14.977v15.698h17.425c6.624,0,8.856-0.145,9.289-0.145
		c0.72,0,0.792,0.072,0.792,0.792v5.473c0,0.648-0.072,0.72-0.792,0.72c-0.433,0-2.665-0.144-9.289-0.144H230.866z M234.972,69.16
		c0.936-0.432,1.151-0.432,1.655,0.288c1.872,2.736,3.745,6.265,5.112,9.505c0.289,0.72,0.217,0.864-0.648,1.296l-4.464,2.232
		c-1.08,0.432-1.151,0.432-1.44-0.288c-1.295-3.528-2.736-6.841-4.896-9.865c-0.504-0.647-0.359-0.792,0.576-1.224L234.972,69.16z
		 M258.877,47.847c3.456,0,5.616,0,6.985-0.072c-5.545-3.528-10.369-7.705-14.33-12.745c-4.176,5.112-8.856,9.289-14.041,12.745
		c1.368,0.072,3.528,0.072,6.984,0.072H258.877z M264.421,72.4c0.576-1.296,1.08-2.448,1.369-3.816
		c2.592,0.721,4.32,1.44,6.049,2.305c0.863,0.432,1.295,0.792,1.295,1.224c0,0.576-0.359,0.792-0.863,1.152
		c-0.432,0.36-0.937,0.937-1.656,2.304c-1.008,1.944-2.592,4.681-3.816,6.409c-0.504,0.647-0.792,0.936-1.152,0.936
		c-0.359,0-0.863-0.216-1.656-0.575c-1.224-0.648-2.88-1.44-4.248-1.801C261.686,77.945,263.27,74.921,264.421,72.4z"/>
</g>
<g enable-background="new    ">
	<path fill="#403C3D" d="M317.693,73.454c-0.551,0.611-0.856,0.918-1.163,0.918c-0.306,0-0.551-0.307-1.102-0.918
		c-0.611-0.551-1.162-1.101-1.713-1.529c0,9.912,0.123,12.359,0.123,12.666c0,0.611-0.062,0.673-0.674,0.673h-3.977
		c-0.612,0-0.674-0.062-0.674-0.673v-2.693h-4.956v4.896c0,0.551-0.061,0.611-0.733,0.611h-4.1c-0.612,0-0.674-0.061-0.674-0.611
		c0-0.429,0.123-3.732,0.123-20.191V55.282c0-11.381-0.123-14.808-0.123-15.236c0-0.612,0.062-0.673,0.674-0.673
		c0.428,0,1.469,0.122,4.956,0.122h4.589c3.427,0,4.467-0.122,4.895-0.122c0.612,0,0.674,0.062,0.674,0.673
		c0,0.367-0.123,3.549-0.123,13.033v16.766c2.814-2.509,4.65-5.079,6.242-8.2c0.489-0.979,1.161-2.63,1.468-4.099h-1.163
		c-2.447,0-2.937,0.122-3.304,0.122c-0.673,0-0.734-0.061-0.734-0.734v-3.12c0-0.612,0.062-0.674,0.734-0.674
		c0.367,0,0.856,0.123,3.304,0.123h6.548v-2.876h-4.956c-2.999,0-3.732,0.123-4.101,0.123c-0.611,0-0.673-0.062-0.673-0.734v-2.876
		c0-0.673,0.062-0.734,0.673-0.734c0.368,0,1.102,0.123,4.101,0.123h4.956v-2.876h-4.956c-3.488,0-4.528,0.123-4.896,0.123
		c-0.673,0-0.734-0.062-0.734-0.673v-3.366c0-0.611,0.062-0.673,0.734-0.673c0.367,0,1.407,0.123,4.896,0.123h4.16
		c3.61,0,5.2-0.123,5.568-0.123c0.611,0,0.673,0.062,0.673,0.673c0,0.368-0.123,2.02-0.123,5.507v6.608
		c0,3.549,0.123,5.018,0.123,5.323c0,0.674-0.062,0.734-0.673,0.734c-0.368,0-1.958-0.122-5.568-0.122h-4.527
		c1.713,0.366,3.426,0.918,4.649,1.346c0.674,0.245,0.979,0.428,0.979,0.796c0,0.367-0.243,0.55-0.55,0.795
		c-0.611,0.428-1.04,1.162-1.652,2.325h8.016c0.367-0.673,0.673-1.284,0.857-1.836c0.305-0.917,0.611-1.896,0.795-3.304
		c-0.306-0.061-0.306-0.244-0.306-0.734v-3.12c0-0.612,0.061-0.674,0.733-0.674c0.367,0,0.856,0.123,3.305,0.123h6.424v-2.876
		h-4.833c-2.998,0-3.732,0.123-4.101,0.123c-0.61,0-0.672-0.062-0.672-0.734v-2.876c0-0.673,0.062-0.734,0.672-0.734
		c0.368,0,1.103,0.123,4.101,0.123h4.833v-2.876h-4.772c-3.61,0-4.589,0.123-4.956,0.123c-0.673,0-0.733-0.062-0.733-0.673v-3.366
		c0-0.611,0.061-0.673,0.733-0.673c0.367,0,1.346,0.123,4.956,0.123h3.978c3.61,0,5.201-0.123,5.567-0.123
		c0.673,0,0.734,0.062,0.734,0.673c0,0.368-0.122,2.02-0.122,5.507v6.486c0,3.549,0.122,5.14,0.122,5.445
		c0,0.674-0.062,0.734-0.734,0.734c-0.366,0-1.957-0.122-5.567-0.122h-5.629c-2.448,0-2.938,0.122-3.61,0.122
		c1.347,0.306,3.549,0.856,4.833,1.224c0.552,0.184,0.918,0.428,0.918,0.734c0,0.429-0.244,0.734-0.489,0.918
		c-0.367,0.306-0.611,0.673-0.795,1.101c-0.184,0.429-0.367,0.796-0.612,1.163h4.222c5.14,0,6.792-0.122,7.16-0.122
		c0.672,0,0.733,0.061,0.733,0.673v3.182c0,0.673-0.062,0.734-0.733,0.734c-0.368,0-2.021-0.123-7.16-0.123h-4.589v3.305h1.102
		c6.363,0,8.627-0.123,8.994-0.123c0.612,0,0.674,0.062,0.674,0.674v3.182c0,0.611-0.062,0.673-0.674,0.673
		c-0.367,0-2.631-0.122-8.994-0.122h-1.102v3.304h0.979c6.424,0,8.627-0.122,8.994-0.122c0.611,0,0.673,0.061,0.673,0.673v3.12
		c0,0.612-0.062,0.674-0.673,0.674c-0.367,0-2.57-0.122-8.994-0.122h-0.979v3.426h5.263c5.322,0,7.158-0.122,7.525-0.122
		c0.612,0,0.674,0.061,0.674,0.673v3.304c0,0.612-0.062,0.673-0.674,0.673c-0.367,0-2.203-0.121-7.525-0.121h-19.152v2.08
		c0,0.611-0.061,0.673-0.672,0.673h-4.467c-0.674,0-0.734-0.062-0.734-0.673c0-0.368,0.122-1.53,0.122-5.385v-7.771
		c0-1.285,0.062-4.1,0.184-6.73L317.693,73.454z M303.559,45.063v12.544h4.956V45.063H303.559z M308.515,76.391V63.053h-4.956
		v13.338H308.515z M324.301,70.456h8.199v-3.305h-8.199V70.456z M332.5,78.043v-3.304h-8.199v3.304H332.5z M332.5,85.691v-3.426
		h-8.199v3.426H332.5z"/>
</g>
<g enable-background="new    ">
	<path fill="#403C3D" d="M364.954,92.66c-0.644,0-0.708-0.063-0.708-0.708c0-0.451,0.128-4.251,0.128-22.928V56.594
		c0-12.494-0.128-16.422-0.128-16.81c0-0.708,0.064-0.772,0.708-0.772c0.451,0,2.641,0.128,8.888,0.128h22.091
		c6.247,0,8.501-0.128,8.888-0.128c0.645,0,0.709,0.064,0.709,0.772c0,0.387-0.129,4.316-0.129,14.878V68.96
		c0,18.484,0.129,22.283,0.129,22.67c0,0.645-0.064,0.709-0.709,0.709h-5.731c-0.646,0-0.709-0.064-0.709-0.709v-3.155h-26.985
		v3.478c0,0.645-0.064,0.708-0.708,0.708H364.954z M371.395,60.2h26.985V45.517h-26.985V60.2z M398.38,82.099V66.513h-26.985v15.586
		H398.38z"/>
</g>
<g enable-background="new    ">
	<path fill="#403C3D" d="M137.657,20.362c-1.032,3.024-2.616,4.152-5.305,4.152c-0.504,0-1.008-0.024-1.632-0.12l-0.12-2.305
		c0.648,0.12,1.152,0.168,1.68,0.168c1.224,0,2.04-0.647,2.496-2.04l0.192-0.576l-4.464-12.937h3.192l1.56,5.521
		c0.432,1.512,0.72,2.784,1.104,4.32h0.24c0.408-1.488,0.744-2.832,1.176-4.368l1.512-5.473h3L137.657,20.362z"/>
</g>
<g enable-background="new    ">
	<path fill="#403C3D" d="M158.515,19.882h-2.928v-2.28c-0.936,1.584-2.521,2.616-4.272,2.616c-2.136,0-3.816-1.296-3.816-3.888
		V6.705h3.096v8.761c0,1.488,0.672,2.16,1.848,2.16c1.128,0,2.376-0.96,3.048-2.257V6.705h3.024V19.882z"/>
</g>
<g enable-background="new    ">
	<path fill="#403C3D" d="M177.17,19.882h-2.928v-2.28c-0.936,1.584-2.521,2.616-4.272,2.616c-2.136,0-3.816-1.296-3.816-3.888V6.705
		h3.096v8.761c0,1.488,0.672,2.16,1.848,2.16c1.128,0,2.376-0.96,3.048-2.257V6.705h3.024V19.882z"/>
</g>
<g enable-background="new    ">
	<path fill="#403C3D" d="M185.528,6.321c0.408-3.289,2.64-5.064,5.641-5.064c3.288,0,5.473,1.775,5.473,4.944
		c0,2.04-0.888,3.576-3.696,6.192c-2.521,2.256-3.721,3.601-4.464,5.088h8.232v2.4H185.36v-2.136
		c1.08-2.257,2.616-4.272,5.232-6.793c2.4-2.304,2.928-3.265,2.928-4.776c0-1.608-0.936-2.544-2.4-2.544
		c-1.512,0-2.448,1.128-2.592,3.312L185.528,6.321z"/>
	<path fill="#403C3D" d="M217.186,3.824h-9.001v5.017h6.816v2.568h-6.816v8.473h-3.264V1.257h12.265V3.824z"/>
</g>
<g enable-background="new    ">
	<path fill="#403C3D" d="M229.68,9.249c-1.584,0-2.904,1.032-3.744,3.336v7.297h-2.977V6.705h2.832v3.24
		c0.936-2.593,2.305-3.528,4.08-3.528L229.68,9.249z"/>
</g>
<g enable-background="new    ">
	<path fill="#403C3D" d="M240.961,4.353h-3.265V1.257h3.265V4.353z M240.84,19.882h-3.023V6.705h3.023V19.882z"/>
</g>
<g enable-background="new    ">
	<path fill="#403C3D" d="M260.036,19.882h-2.904v-1.824c-0.864,1.464-2.136,2.16-3.696,2.16c-2.832,0-5.04-2.472-5.04-6.984
		s2.256-6.793,5.04-6.793c1.465,0,2.809,0.744,3.601,2.089V0.92h3V19.882z M257.036,11.049c-0.624-1.536-1.656-2.256-2.736-2.256
		c-1.513,0-2.808,1.368-2.808,4.488c0,3.192,1.295,4.585,2.879,4.585c1.105,0,2.064-0.816,2.665-2.209V11.049z"/>
	<path fill="#403C3D" d="M269.323,10.018c0.673-2.377,2.593-3.625,5.448-3.625c3.408,0,5.113,1.44,5.113,4.368v5.233
		c0,1.535,0.096,2.784,0.215,3.888h-2.783c-0.096-0.576-0.145-0.96-0.217-1.728c-0.936,1.344-2.472,2.04-4.152,2.04
		c-2.424,0-4.057-1.513-4.057-3.913c0-2.304,1.441-3.792,4.297-4.344c1.129-0.216,2.424-0.336,3.769-0.384V10.81
		c0-1.656-0.696-2.328-2.28-2.328c-1.248,0-2.256,0.792-2.52,2.304L269.323,10.018z M276.956,13.426
		c-1.272,0.023-2.208,0.191-3.024,0.384c-1.416,0.336-2.16,1.056-2.16,2.232c0,1.248,0.744,1.992,2.112,1.992
		c1.151,0,2.304-0.721,3.072-2.16V13.426z"/>
</g>
<g enable-background="new    ">
	<path fill="#403C3D" d="M295.211,20.362c-1.032,3.024-2.616,4.152-5.305,4.152c-0.504,0-1.008-0.024-1.632-0.12l-0.12-2.305
		c0.648,0.12,1.152,0.168,1.68,0.168c1.225,0,2.041-0.647,2.496-2.04l0.192-0.576l-4.464-12.937h3.191l1.561,5.521
		c0.432,1.512,0.721,2.784,1.104,4.32h0.24c0.408-1.488,0.744-2.832,1.177-4.368l1.512-5.473h3.001L295.211,20.362z"/>
</g>
</svg>
